HIERARCHY
ROOT Hips
{
	OFFSET 0.0000 0.0000 0.0000
	CHANNELS 6 Xposition Yposition Zposition Zrotation Xrotation Yrotation
	JOINT Ab
	{
		OFFSET -0.0000 8.1305 -0.0000
		CHANNELS 3 Zrotation Xrotation Yrotation
		JOINT Chest
		{
			OFFSET -0.0000 26.2902 -0.0000
			CHANNELS 3 Zrotation Xrotation Yrotation
			JOINT Neck
			{
				OFFSET -0.0000 26.2902 0.0000
				CHANNELS 3 Zrotation Xrotation Yrotation
				JOINT Head
				{
					OFFSET -0.0000 10.8167 0.0000
					CHANNELS 3 Zrotation Xrotation Yrotation
					End Site
					{
						OFFSET -0.0000 16.7167 0.0000
					}
				}
			}
			JOINT LeftCollar
			{
				OFFSET -0.0000 26.2902 0.0000
				CHANNELS 3 Zrotation Xrotation Yrotation
				JOINT LeftShoulder
				{
					OFFSET 19.6667 -0.0000 0.0000
					CHANNELS 3 Zrotation Xrotation Yrotation
					JOINT LeftElbow
					{
						OFFSET 27.2190 0.0000 0.0000
						CHANNELS 3 Zrotation Xrotation Yrotation
						JOINT LeftWrist
						{
							OFFSET 30.7431 0.0000 0.0000
							CHANNELS 3 Zrotation Xrotation Yrotation
							End Site
							{
								OFFSET 0.0000 -14.7500 0.0000
							}
						}
					}
				}
			}
			JOINT RightCollar
			{
				OFFSET -0.0000 26.2902 0.0000
				CHANNELS 3 Zrotation Xrotation Yrotation
				JOINT RightShoulder
				{
					OFFSET -19.6667 0.0000 0.0000
					CHANNELS 3 Zrotation Xrotation Yrotation
					JOINT RightElbow
					{
						OFFSET -27.2190 0.0000 0.0000
						CHANNELS 3 Zrotation Xrotation Yrotation
						JOINT RightWrist
						{
							OFFSET -30.7431 0.0000 0.0000
							CHANNELS 3 Zrotation Xrotation Yrotation
							End Site
							{
								OFFSET -0.0000 -14.7500 0.0000
							}
						}
					}
				}
			}
		}
	}
	JOINT LeftHip
	{
		OFFSET 11.8000 0.0000 0.0000
		CHANNELS 3 Zrotation Xrotation Yrotation
		JOINT LeftKnee
		{
			OFFSET -0.0000 -39.7832 0.0000
			CHANNELS 3 Zrotation Xrotation Yrotation
			JOINT LeftAnkle
			{
				OFFSET -0.0000 -41.7317 0.0000
				CHANNELS 3 Zrotation Xrotation Yrotation
				End Site
				{
					OFFSET -0.0000 -4.9167 16.7167
				}
			}
		}
	}
	JOINT RightHip
	{
		OFFSET -11.8000 0.0000 0.0000
		CHANNELS 3 Zrotation Xrotation Yrotation
		JOINT RightKnee
		{
			OFFSET -0.0000 -39.7832 0.0000
			CHANNELS 3 Zrotation Xrotation Yrotation
			JOINT RightAnkle
			{
				OFFSET -0.0000 -41.7317 0.0000
				CHANNELS 3 Zrotation Xrotation Yrotation
				End Site
				{
					OFFSET -0.0000 -4.9167 16.7167
				}
			}
		}
	}
}
MOTION
Frames: 10
Frame Time: 0.010000
-17.7798 96.6768 179.8429 358.6673 357.7624 180.1239 358.9262 348.4246 0.3509 1.7592 9.9663 0.3122 0.1512 352.1149 1.7566 351.6439 7.7769 2.3131 339.1079 357.2926 14.5272 318.3078 59.5438 340.5110 9.2553 357.2263 326.7044 83.1798 357.0312 346.6118 28.6609 356.0244 344.4909 45.3561 47.0034 4.1290 341.7721 354.8242 31.3097 270.7318 356.3867 12.5576 356.6686 2.1714 358.3248 357.7648 10.7915 358.0806 356.3768 347.1713 22.4734 0.6019 7.4045 8.1151 6.2949 3.9008 5.0353 349.2546 343.4980 318.5753 
-17.7984 96.6708 179.8178 358.6710 357.7467 180.1017 358.9244 348.4205 0.3629 1.8007 10.0115 0.3126 0.1259 352.1251 1.7770 351.6582 7.7206 2.3321 339.0753 357.3131 14.5508 318.3300 59.4695 340.5367 9.1407 357.2681 326.6003 83.1182 357.0623 346.5372 28.6180 356.0072 344.5161 45.3733 46.9667 4.1178 341.7255 354.8423 31.3555 270.7560 356.3584 12.5393 356.6489 2.0869 358.2109 357.7549 10.9839 358.0511 352.1286 346.0506 22.4760 0.5759 7.3697 8.2040 6.3249 3.9764 5.0298 349.3145 343.3335 318.4998 
-17.8186 96.6662 179.7969 358.6723 357.7172 180.0883 358.9394 348.4238 0.3635 1.8006 10.0187 0.3107 0.1607 352.1118 1.8017 351.6282 7.7387 2.3582 339.1052 357.2854 14.5496 318.2830 59.5122 340.5600 9.2291 357.2336 326.5716 83.2167 357.0964 346.6513 28.6270 356.0403 344.5038 45.3288 46.8666 4.1182 341.8471 354.8549 31.4520 270.7047 356.3730 12.6349 356.6364 1.9383 358.0803 357.7150 11.2737 358.0420 352.5525 345.8073 22.5562 0.5412 7.3118 8.2766 6.3599 4.0861 5.0658 349.3376 343.1634 318.4240 
-17.8384 96.6583 179.7744 358.6830 357.6907 180.0836 358.9459 348.4468 0.3664 1.8224 9.9902 0.3145 358.6146 353.4149 1.5335 353.8839 5.8187 1.9222 339.1016 357.3134 14.5463 318.2652 59.4670 340.6037 9.0979 357.2728 326.5279 83.2130 357.0668 346.5509 28.6039 356.0177 344.5058 45.3577 46.8658 4.0751 341.7672 354.8464 31.4866 270.7584 356.3418 12.5797 356.6333 1.7913 357.9484 357.6752 11.5782 358.0209 352.9973 345.5965 22.6505 0.5206 7.2409 8.3481 6.3932 4.2409 5.0941 349.4067 342.8998 318.3515 
-17.8651 96.6553 179.7459 358.6809 357.6573 180.0691 358.9667 348.4529 0.3787 1.8101 9.9840 0.3134 358.6032 353.4012 1.5535 353.9429 5.8292 1.9428 339.1350 357.2867 14.5850 318.2990 59.5826 340.5314 9.2112 357.2315 326.5618 83.0665 357.0266 346.5859 28.6138 356.0440 344.4908 45.3193 46.8085 4.0724 341.7969 354.8077 31.6496 271.4166 356.1029 11.5396 356.5985 1.6019 357.8496 357.6693 11.9507 357.9721 353.0053 345.2195 22.6879 0.4770 7.1558 8.3921 6.4413 4.4010 5.0648 349.7303 342.2493 318.2128 
-17.8887 96.6489 179.7285 358.6885 357.6126 180.0526 359.0181 348.4722 0.3663 1.7610 9.9670 0.3088 358.6279 353.3414 1.5680 353.9393 5.8983 1.9604 339.1776 357.3386 14.6017 318.2750 59.5496 340.5340 9.1070 357.2528 326.5252 82.9871 357.0469 346.4438 28.6125 356.0088 344.4797 45.3463 46.7987 4.0747 341.7175 354.7992 31.6543 271.4792 356.0303 11.5436 356.5862 1.3912 357.7196 357.6346 12.3160 357.9587 353.4823 344.9958 22.7825 0.4389 7.0378 8.5724 6.5079 4.5946 5.0099 349.7889 341.8688 318.1073 
-17.9107 96.6435 179.6929 358.6997 357.5954 180.0250 359.0694 348.4905 0.3584 1.7435 9.9936 0.2971 358.6196 353.2999 1.5973 353.9359 5.9088 1.9918 339.2014 357.3039 14.6256 318.1502 59.5073 340.6265 9.2206 357.2189 326.5034 82.8535 357.0359 346.4442 28.6183 356.0362 344.4729 45.2801 46.7701 4.1164 341.8657 354.8288 31.7147 270.6493 356.4767 12.5240 356.5802 1.2119 357.6627 357.6153 12.7114 357.8201 353.6662 344.6337 22.8660 0.4154 6.9342 8.6711 6.5548 4.8583 5.1103 349.7380 341.5810 318.1281 
-17.9369 96.6383 179.6703 358.6998 357.5294 180.0004 359.0586 348.4582 0.3664 1.7951 10.0468 0.3028 358.6796 353.2382 1.6131 353.8138 5.9199 2.0106 339.2042 357.3336 14.6037 318.0139 59.4194 340.7923 9.1386 357.2396 326.3893 82.8628 357.1072 346.3687 28.5861 356.0161 344.4926 45.2713 46.6815 4.1203 341.7623 354.7650 31.8647 271.4120 356.1840 11.4603 356.5542 0.9388 357.5655 357.5815 13.1635 357.7907 353.9375 344.3009 22.8910 0.3715 6.7511 8.7702 6.6244 5.1601 5.1255 350.0807 340.7505 317.9262 
-17.9637 96.6296 179.6371 358.7108 357.5165 179.9689 359.0846 348.5045 0.3741 1.8034 10.0320 0.3093 358.7035 353.2116 1.6379 353.7922 5.9394 2.0372 339.1960 357.3110 14.5661 317.9829 59.3888 340.8719 9.1411 357.2043 326.3553 83.1294 357.1195 346.5995 28.5981 356.0483 344.5229 45.2743 46.4986 4.0348 341.9589 354.8169 31.9254 270.6346 356.4761 12.6285 356.5427 0.7719 357.5132 357.5702 13.5301 357.6675 354.2885 344.0252 22.9547 0.3318 6.6061 8.8545 6.7167 5.4900 5.1447 350.2141 340.0772 317.7953 
-17.9923 96.6198 179.5972 358.7226 357.4857 179.9365 359.0857 348.5188 0.3982 1.8469 10.0452 0.3236 358.7131 353.1673 1.6440 353.7900 5.9464 2.0452 339.1950 357.3312 14.5201 317.8433 59.3118 341.0450 9.0541 357.2211 326.3209 83.1153 357.1213 346.4600 28.5904 356.0214 344.5326 45.2445 46.4351 4.0179 341.9430 354.7837 32.0005 270.7345 356.4753 12.7101 356.5154 0.5684 357.4909 357.5718 13.9497 357.6080 354.5023 343.6886 22.9628 0.2882 6.4667 8.8833 6.7992 5.7912 5.2321 350.3636 339.4116 317.6814 
